<svg xmlns="http://www.w3.org/2000/svg" width="100%" viewBox="0 0 800 340" role="img" aria-labelledby="title desc">
<title id="title">Process Thread Scheduling And Concurrency — diagram 2</title><desc id="desc">Process Thread Scheduling And Concurrency — diagram 2</desc>
<style>@import url('https://fonts.googleapis.com/css2?family=Instrument+Serif:ital@0;1&amp;family=Geist:wght@400;500;600&amp;family=Geist+Mono:wght@400;500;600&amp;display=swap');
text{font-family:'Geist',Inter,system-ui,sans-serif;fill:#2d3142}.mono{font-family:'Geist Mono',ui-monospace,monospace}.node-title{font-size:12px;font-weight:600}.sub{font-size:9px;fill:#4f5d75}.tag{font-size:7px;font-weight:500;letter-spacing:.16em;fill:#7a8399}.edge-label{font-size:8px;fill:#4f5d75}.callout{font-family:'Instrument Serif',Georgia,serif;font-style:italic;font-size:14px;fill:#4f5d75}svg{background:#f5f5f5}path,line,rect,polygon,circle{vector-effect:non-scaling-stroke}</style>
<defs>
 <marker id="arr" markerWidth="7" markerHeight="7" refX="6" refY="3.5" orient="auto"><path d="M0,0 L7,3.5 L0,7 Z" fill="#4f5d75"/></marker>
 <marker id="arr-accent" markerWidth="7" markerHeight="7" refX="6" refY="3.5" orient="auto"><path d="M0,0 L7,3.5 L0,7 Z" fill="#eb6c36"/></marker>
 <marker id="arr-link" markerWidth="7" markerHeight="7" refX="6" refY="3.5" orient="auto"><path d="M0,0 L7,3.5 L0,7 Z" fill="#2e5aa8"/></marker>
</defs>
<rect width="800" height="340" fill="#f5f5f5"/>
<rect x="12.0" y="24" width="116" height="46" rx="8" fill="#ffffff" stroke="#2d3142" stroke-width="1.1"/><text x="70.0" y="51.0" text-anchor="middle" class="node-title">Requests</text><line x1="70.0" y1="70" x2="70.0" y2="316" stroke="#d7d8dd" stroke-width="1" stroke-dasharray="4 4"/><rect x="232.0" y="24" width="116" height="46" rx="8" fill="#fff0e9" stroke="#eb6c36" stroke-width="1.1"/><text x="290.0" y="51.0" text-anchor="middle" class="node-title">ThreadPool workers</text><line x1="290.0" y1="70" x2="290.0" y2="316" stroke="#d7d8dd" stroke-width="1" stroke-dasharray="4 4"/><rect x="452.0" y="24" width="116" height="46" rx="8" fill="#ffffff" stroke="#2d3142" stroke-width="1.1"/><text x="510.0" y="51.0" text-anchor="middle" class="node-title">Blocking call</text><line x1="510.0" y1="70" x2="510.0" y2="316" stroke="#d7d8dd" stroke-width="1" stroke-dasharray="4 4"/><rect x="672.0" y="24" width="116" height="46" rx="8" fill="#ffffff" stroke="#2d3142" stroke-width="1.1"/><text x="730.0" y="51.0" text-anchor="middle" class="node-title">Continuation queue</text><line x1="730.0" y1="70" x2="730.0" y2="316" stroke="#d7d8dd" stroke-width="1" stroke-dasharray="4 4"/><line x1="70.0" y1="104" x2="290.0" y2="104" stroke="#4f5d75" stroke-width="1.1" marker-end="url(#arr)"/><rect x="137.2" y="86" width="85.60000000000001" height="14" rx="3" fill="#f5f5f5"/><text x="180.0" y="96" text-anchor="middle" class="edge-label mono">Chiếm workers</text><line x1="290.0" y1="150" x2="510.0" y2="150" stroke="#4f5d75" stroke-width="1.1" marker-end="url(#arr)"/><rect x="339.0" y="132" width="122.0" height="14" rx="3" fill="#f5f5f5"/><text x="400.0" y="142" text-anchor="middle" class="edge-label mono">Block chờ completion</text><line x1="510.0" y1="196" x2="730.0" y2="196" stroke="#4f5d75" stroke-width="1.1" marker-end="url(#arr)" stroke-dasharray="4 3"/><rect x="515.0" y="178" width="210" height="14" rx="3" fill="#f5f5f5"/><text x="620.0" y="188" text-anchor="middle" class="edge-label mono">Completion cần worker chạy continuation</text><line x1="730.0" y1="242" x2="290.0" y2="242" stroke="#4f5d75" stroke-width="1.1" marker-end="url(#arr)" stroke-dasharray="4 3"/><rect x="438.6" y="224" width="142.8" height="14" rx="3" fill="#f5f5f5"/><text x="510.0" y="234" text-anchor="middle" class="edge-label mono">Không đủ worker sẵn sàng</text><line x1="70.0" y1="288" x2="730.0" y2="288" stroke="#4f5d75" stroke-width="1.1" marker-end="url(#arr)"/><rect x="315.6" y="270" width="168.8" height="14" rx="3" fill="#f5f5f5"/><text x="400.0" y="280" text-anchor="middle" class="edge-label mono">Request mới tiếp tục xếp hàng</text></svg>
