<svg xmlns="http://www.w3.org/2000/svg" width="100%" viewBox="0 0 368 964" role="img" aria-labelledby="title desc">
<title id="title">Incident Lab Dotnet Service — diagram 1</title><desc id="desc">Incident Lab Dotnet Service — diagram 1</desc>
<style>@import url('https://fonts.googleapis.com/css2?family=Instrument+Serif:ital@0;1&amp;family=Geist:wght@400;500;600&amp;family=Geist+Mono:wght@400;500;600&amp;display=swap');
text{font-family:'Geist',Inter,system-ui,sans-serif;fill:#2d3142}.mono{font-family:'Geist Mono',ui-monospace,monospace}.node-title{font-size:12px;font-weight:600}.sub{font-size:9px;fill:#4f5d75}.tag{font-size:7px;font-weight:500;letter-spacing:.16em;fill:#7a8399}.edge-label{font-size:8px;fill:#4f5d75}.callout{font-family:'Instrument Serif',Georgia,serif;font-style:italic;font-size:14px;fill:#4f5d75}svg{background:#f5f5f5}path,line,rect,polygon,circle{vector-effect:non-scaling-stroke}</style>
<defs>
 <marker id="arr" markerWidth="7" markerHeight="7" refX="6" refY="3.5" orient="auto"><path d="M0,0 L7,3.5 L0,7 Z" fill="#4f5d75"/></marker>
 <marker id="arr-accent" markerWidth="7" markerHeight="7" refX="6" refY="3.5" orient="auto"><path d="M0,0 L7,3.5 L0,7 Z" fill="#eb6c36"/></marker>
 <marker id="arr-link" markerWidth="7" markerHeight="7" refX="6" refY="3.5" orient="auto"><path d="M0,0 L7,3.5 L0,7 Z" fill="#2e5aa8"/></marker>
</defs>
<rect width="368" height="964" fill="#f5f5f5"/>
<path d="M 184.0 94 V 132" fill="none" stroke="#4f5d75" stroke-width="1.1" marker-end="url(#arr)"/><path d="M 184.0 194 V 232" fill="none" stroke="#4f5d75" stroke-width="1.1" marker-end="url(#arr)"/><path d="M 184.0 294 V 332" fill="none" stroke="#4f5d75" stroke-width="1.1" marker-end="url(#arr)"/><path d="M 184.0 394 V 432" fill="none" stroke="#4f5d75" stroke-width="1.1" marker-end="url(#arr)"/><path d="M 184.0 494 V 532" fill="none" stroke="#4f5d75" stroke-width="1.1" marker-end="url(#arr)"/><path d="M 184.0 594 V 632" fill="none" stroke="#4f5d75" stroke-width="1.1" marker-end="url(#arr)"/><path d="M 184.0 694 V 705.0 Q 184.0 713.0 176.0 713.0 H 116.0 Q 108.0 713.0 108.0 721.0 V 732" fill="none" stroke="#4f5d75" stroke-width="1.1" marker-end="url(#arr)"/><rect x="125.0" y="697.0" width="42" height="15" rx="3" fill="#f5f5f5"/><text x="146.0" y="708.0" text-anchor="middle" class="edge-label mono">Có</text><path d="M 108.0 794 V 805.0 Q 108.0 813.0 116.0 813.0 H 176.0 Q 184.0 813.0 184.0 821.0 V 832" fill="none" stroke="#4f5d75" stroke-width="1.1" marker-end="url(#arr)"/><path d="M 184.0 694 V 705.0 Q 184.0 713.0 192.0 713.0 H 252.0 Q 260.0 713.0 260.0 721.0 V 732" fill="none" stroke="#4f5d75" stroke-width="1.1" marker-end="url(#arr)"/><rect x="201.0" y="697.0" width="42" height="15" rx="3" fill="#f5f5f5"/><text x="222.0" y="708.0" text-anchor="middle" class="edge-label mono">Không</text><path d="M 260.0 732 V 555.0 Q 260.0 563.0 252.0 563.0 H 192.0 Q 184.0 563.0 184.0 555.0 V 394" fill="none" stroke="#4f5d75" stroke-width="1.1" marker-end="url(#arr)"/><rect x="124.0" y="32" width="120" height="62" rx="8" fill="#ffffff" stroke="#2d3142" stroke-width="1.1"/><text x="184.0" y="53.0" text-anchor="middle" class="node-title">Symptom</text><text x="184.0" y="67.0" text-anchor="middle" class="sub">unreachable · 503 · 502/504 ·</text><text x="184.0" y="81.0" text-anchor="middle" class="sub">reset</text><rect x="124.0" y="132" width="120" height="62" rx="8" fill="#e8edf2" stroke="#7a8399" stroke-width="1.1"/><text x="184.0" y="153.0" text-anchor="middle" class="node-title">Baseline</text><text x="184.0" y="167.0" text-anchor="middle" class="sub">revision · process · listener</text><text x="184.0" y="181.0" text-anchor="middle" class="sub">· healthy request</text><rect x="124.0" y="232" width="120" height="62" rx="8" fill="#ffffff" stroke="#2d3142" stroke-width="1.1"/><text x="184.0" y="253.0" text-anchor="middle" class="node-title">Bound failure</text><text x="184.0" y="267.0" text-anchor="middle" class="sub">process → socket → DNS/connect</text><text x="184.0" y="281.0" text-anchor="middle" class="sub">→ HTTP → dependency</text><rect x="124.0" y="332" width="120" height="62" rx="8" fill="#ffffff" stroke="#2d3142" stroke-width="1.1"/><text x="184.0" y="367.0" text-anchor="middle" class="node-title">Một hypothesis có thể bác bỏ</text><rect x="124.0" y="432" width="120" height="62" rx="8" fill="#ffffff" stroke="#2d3142" stroke-width="1.1"/><text x="184.0" y="467.0" text-anchor="middle" class="node-title">Bounded experiment</text><rect x="124.0" y="532" width="120" height="62" rx="8" fill="#ffffff" stroke="#2d3142" stroke-width="1.1"/><text x="184.0" y="567.0" text-anchor="middle" class="node-title">Evidence + UTC timeline</text><polygon points="184.0,632.0 244.0,663.0 184.0,694.0 124.0,663.0" fill="#fff0e9" stroke="#eb6c36" stroke-width="1.1"/><text x="184.0" y="667.0" text-anchor="middle" class="node-title">Hypothesis đúng?</text><rect x="48.0" y="732" width="120" height="62" rx="8" fill="#ffffff" stroke="#2d3142" stroke-width="1.1"/><text x="108.0" y="767.0" text-anchor="middle" class="node-title">Mitigate + verify SLO</text><rect x="200.0" y="732" width="120" height="62" rx="8" fill="#ffffff" stroke="#2d3142" stroke-width="1.1"/><text x="260.0" y="767.0" text-anchor="middle" class="node-title">Hypothesis kế tiếp</text><rect x="124.0" y="832" width="120" height="62" rx="8" fill="#ffffff" stroke="#2d3142" stroke-width="1.1"/><text x="184.0" y="867.0" text-anchor="middle" class="node-title">Root cause + prevention</text></svg>
