<svg xmlns="http://www.w3.org/2000/svg" width="100%" viewBox="0 0 368 764" role="img" aria-labelledby="title desc">
<title id="title">Readme — diagram 1</title><desc id="desc">Readme — diagram 1</desc>
<style>@import url('https://fonts.googleapis.com/css2?family=Instrument+Serif:ital@0;1&amp;family=Geist:wght@400;500;600&amp;family=Geist+Mono:wght@400;500;600&amp;display=swap');
text{font-family:'Geist',Inter,system-ui,sans-serif;fill:#2d3142}.mono{font-family:'Geist Mono',ui-monospace,monospace}.node-title{font-size:12px;font-weight:600}.sub{font-size:9px;fill:#4f5d75}.tag{font-size:7px;font-weight:500;letter-spacing:.16em;fill:#7a8399}.edge-label{font-size:8px;fill:#4f5d75}.callout{font-family:'Instrument Serif',Georgia,serif;font-style:italic;font-size:14px;fill:#4f5d75}svg{background:#f5f5f5}path,line,rect,polygon,circle{vector-effect:non-scaling-stroke}</style>
<defs>
 <marker id="arr" markerWidth="7" markerHeight="7" refX="6" refY="3.5" orient="auto"><path d="M0,0 L7,3.5 L0,7 Z" fill="#4f5d75"/></marker>
 <marker id="arr-accent" markerWidth="7" markerHeight="7" refX="6" refY="3.5" orient="auto"><path d="M0,0 L7,3.5 L0,7 Z" fill="#eb6c36"/></marker>
 <marker id="arr-link" markerWidth="7" markerHeight="7" refX="6" refY="3.5" orient="auto"><path d="M0,0 L7,3.5 L0,7 Z" fill="#2e5aa8"/></marker>
</defs>
<rect width="368" height="764" fill="#f5f5f5"/>
<path d="M 108.0 94 V 132" fill="none" stroke="#4f5d75" stroke-width="1.1" marker-end="url(#arr)"/><path d="M 108.0 194 V 232" fill="none" stroke="#4f5d75" stroke-width="1.1" marker-end="url(#arr)"/><path d="M 260.0 94 V 132" fill="none" stroke="#4f5d75" stroke-width="1.1" marker-end="url(#arr)"/><path d="M 260.0 194 V 232" fill="none" stroke="#4f5d75" stroke-width="1.1" marker-end="url(#arr)"/><path d="M 260.0 294 V 305.0 Q 260.0 313.0 252.0 313.0 H 116.0 Q 108.0 313.0 108.0 321.0 V 332" fill="none" stroke="#4f5d75" stroke-width="1.1" marker-end="url(#arr)"/><path d="M 108.0 394 V 432" fill="none" stroke="#4f5d75" stroke-width="1.1" marker-end="url(#arr)"/><path d="M 108.0 494 V 532" fill="none" stroke="#4f5d75" stroke-width="1.1" marker-end="url(#arr)"/><path d="M 108.0 594 V 605.0 Q 108.0 613.0 116.0 613.0 H 176.0 Q 184.0 613.0 184.0 621.0 V 632" fill="none" stroke="#4f5d75" stroke-width="1.1" marker-end="url(#arr)"/><path d="M 184.0 632 V 505.0 Q 184.0 513.0 192.0 513.0 H 252.0 Q 260.0 513.0 260.0 505.0 V 394" fill="none" stroke="#4f5d75" stroke-width="1.1" marker-end="url(#arr)"/><path d="M 108.0 294 V 305.0 Q 108.0 313.0 116.0 313.0 H 252.0 Q 260.0 313.0 260.0 321.0 V 332" fill="none" stroke="#4f5d75" stroke-width="1.1" marker-end="url(#arr)"/><path d="M 260.0 394 V 432" fill="none" stroke="#4f5d75" stroke-width="1.1" marker-end="url(#arr)"/><path d="M 260.0 494 V 532" fill="none" stroke="#4f5d75" stroke-width="1.1" marker-end="url(#arr)"/><rect x="48.0" y="32" width="120" height="62" rx="8" fill="#e8edf2" stroke="#7a8399" stroke-width="1.1"/><text x="108.0" y="67.0" text-anchor="middle" class="node-title">User intent</text><rect x="48.0" y="132" width="120" height="62" rx="8" fill="#ffffff" stroke="#2d3142" stroke-width="1.1"/><text x="108.0" y="167.0" text-anchor="middle" class="node-title">Git revision + configuration</text><rect x="48.0" y="232" width="120" height="62" rx="8" fill="#e8edf2" stroke="#7a8399" stroke-width="1.1"/><text x="108.0" y="260.0" text-anchor="middle" class="node-title">Linux process + identity +</text><text x="108.0" y="274.0" text-anchor="middle" class="sub">resources</text><rect x="200.0" y="32" width="120" height="62" rx="8" fill="#e8edf2" stroke="#7a8399" stroke-width="1.1"/><text x="260.0" y="67.0" text-anchor="middle" class="node-title">Client URL</text><rect x="200.0" y="132" width="120" height="62" rx="8" fill="#ffffff" stroke="#2d3142" stroke-width="1.1"/><text x="260.0" y="167.0" text-anchor="middle" class="node-title">DNS → address</text><rect x="200.0" y="232" width="120" height="62" rx="8" fill="#ffffff" stroke="#2d3142" stroke-width="1.1"/><text x="260.0" y="267.0" text-anchor="middle" class="node-title">Namespace + route + NAT</text><rect x="48.0" y="332" width="120" height="62" rx="8" fill="#ffffff" stroke="#2d3142" stroke-width="1.1"/><text x="108.0" y="367.0" text-anchor="middle" class="node-title">TCP / UDP / QUIC</text><rect x="48.0" y="432" width="120" height="62" rx="8" fill="#ffffff" stroke="#2d3142" stroke-width="1.1"/><text x="108.0" y="460.0" text-anchor="middle" class="node-title">TLS identity + protected</text><text x="108.0" y="474.0" text-anchor="middle" class="sub">channel</text><rect x="48.0" y="532" width="120" height="62" rx="8" fill="#ffffff" stroke="#2d3142" stroke-width="1.1"/><text x="108.0" y="567.0" text-anchor="middle" class="node-title">HTTP semantics</text><rect x="124.0" y="632" width="120" height="62" rx="8" fill="#ffffff" stroke="#2d3142" stroke-width="1.1"/><text x="184.0" y="667.0" text-anchor="middle" class="node-title">Proxy / load balancer</text><rect x="200.0" y="332" width="120" height="62" rx="8" fill="#fff0e9" stroke="#eb6c36" stroke-width="1.1"/><text x="260.0" y="367.0" text-anchor="middle" class="node-title">Application listening socket</text><rect x="200.0" y="432" width="120" height="62" rx="8" fill="#ffffff" stroke="#2d3142" stroke-width="1.1"/><text x="260.0" y="467.0" text-anchor="middle" class="node-title">Application dependency</text><rect x="200.0" y="532" width="120" height="62" rx="8" fill="#ffffff" stroke="#2d3142" stroke-width="1.1"/><text x="260.0" y="560.0" text-anchor="middle" class="node-title">Logs · metrics · traces ·</text><text x="260.0" y="574.0" text-anchor="middle" class="sub">incident evidence</text></svg>
